<svg width="16" height="16" viewBox="0 0 16 16" fill="none" xmlns="http://www.w3.org/2000/svg">
<path d="M12.26 9.70699C11.14 9.13366 9.68667 8.66699 8 8.66699C6.31333 8.66699 4.86 9.13366 3.74 9.70699C3.07333 10.047 2.66667 10.7337 2.66667 11.4803V13.3337H13.3333V11.4803C13.3333 10.7337 12.9267 10.047 12.26 9.70699ZM12 12.0003H4V11.4803C4 11.227 4.13333 11.0003 4.34667 10.8937C5.14 10.487 6.42 10.0003 8 10.0003C9.58 10.0003 10.86 10.487 11.6533 10.8937C11.8667 11.0003 12 11.227 12 11.4803V12.0003Z" fill="#121212"/>
<path d="M6.52 8.00033H9.48C10.2867 8.00033 10.9067 7.29366 10.8 6.49366L10.5867 4.86033C10.38 3.59366 9.28 2.66699 8 2.66699C6.72 2.66699 5.62 3.59366 5.41333 4.86033L5.2 6.49366C5.09333 7.29366 5.71333 8.00033 6.52 8.00033ZM6.73333 5.06033C6.84 4.44699 7.37333 4.00033 8 4.00033C8.62667 4.00033 9.16 4.44699 9.26667 5.06033L9.48 6.66699H6.52L6.73333 5.06033Z" fill="#121212"/>
</svg>
