<svg width="12" height="12" viewBox="0 0 12 12" fill="none" xmlns="http://www.w3.org/2000/svg">
<path d="M8.50333 7.50325H7.97666L7.79 7.32325C8.44333 6.56325 8.83666 5.57659 8.83666 4.50326C8.83666 2.10992 6.89666 0.169922 4.50333 0.169922C2.11 0.169922 0.169998 2.10992 0.169998 4.50326C0.169998 6.89659 2.11 8.83659 4.50333 8.83659C5.57666 8.83659 6.56333 8.44325 7.32333 7.78992L7.50333 7.97659V8.50326L10.8367 11.8299L11.83 10.8366L8.50333 7.50325ZM4.50333 7.50325C2.84333 7.50325 1.50333 6.16325 1.50333 4.50326C1.50333 2.84326 2.84333 1.50326 4.50333 1.50326C6.16333 1.50326 7.50333 2.84326 7.50333 4.50326C7.50333 6.16325 6.16333 7.50325 4.50333 7.50325Z" fill="#121212"/>
</svg>
