<svg width="17" height="16" viewBox="0 0 17 16" fill="none" xmlns="http://www.w3.org/2000/svg">
<path d="M15.14 10.56C13.46 9.7 11.28 9 8.75 9C6.22 9 4.04 9.7 2.36 10.56C1.36 11.07 0.75 12.1 0.75 13.22V16H16.75V13.22C16.75 12.1 16.14 11.07 15.14 10.56ZM14.75 14H2.75V13.22C2.75 12.84 2.95 12.5 3.27 12.34C4.46 11.73 6.38 11 8.75 11C11.12 11 13.04 11.73 14.23 12.34C14.55 12.5 14.75 12.84 14.75 13.22V14Z" fill="#C4AEFF"/>
<path d="M6.53 8H10.97C12.18 8 13.11 6.94 12.95 5.74L12.63 3.29C12.32 1.39 10.67 0 8.75 0C6.83 0 5.18 1.39 4.87 3.29L4.55 5.74C4.39 6.94 5.32 8 6.53 8ZM6.85 3.59C7.01 2.67 7.81 2 8.75 2C9.69 2 10.49 2.67 10.65 3.59L10.97 6H6.53L6.85 3.59Z" fill="#C4AEFF"/>
</svg>
