<svg width="287" height="60" viewBox="0 0 287 60" fill="none" xmlns="http://www.w3.org/2000/svg">
<path d="M10.2644 34.6969V59.2954H0V0.00390625H28.9233C33.4475 0.00390625 37.3212 1.70047 40.5443 5.0936C43.7675 8.48673 45.3791 12.5729 45.3791 17.352C45.3791 22.1312 43.7675 26.2173 40.5443 29.6104C37.3212 33.0036 33.4475 34.7001 28.9233 34.7001H10.2644V34.6969Z" fill="black"/>
<path d="M52.5903 20.6133C56.7745 16.2036 61.8053 13.9971 67.6894 13.9971C73.5734 13.9971 78.601 16.2036 82.7885 20.6133C86.9727 25.0231 89.0648 30.3678 89.0648 36.6441C89.0648 42.9204 86.9727 48.2651 82.7885 52.6748C78.6043 57.0846 73.5702 59.2911 67.6894 59.2911C61.8086 59.2911 56.7745 57.0846 52.5903 52.6748C48.4061 48.2651 46.314 42.9204 46.314 36.6441C46.314 30.3678 48.4061 25.0231 52.5903 20.6133ZM59.589 45.6794C61.8217 48.1964 64.5218 49.455 67.6894 49.455C70.857 49.455 73.5571 48.1964 75.7898 45.6794C78.0224 43.1623 79.1404 40.1516 79.1404 36.6441C79.1404 33.1366 78.0224 30.1259 75.7898 27.6121C73.5571 25.095 70.857 23.8365 67.6894 23.8365C64.5218 23.8365 61.8217 25.095 59.589 27.6121C57.3564 30.1292 56.2384 33.1398 56.2384 36.6441C56.2384 40.1484 57.3531 43.1623 59.589 45.6794Z" fill="black"/>
<path d="M94.2362 13.916H117.053V23.8404H103.991V59.3801H94.2362V13.916Z" fill="black"/>
<path d="M133.257 49.5404H137.16V59.4648H133.257C129.75 59.4648 126.752 58.2226 124.264 55.7317C121.777 53.2441 120.531 50.2465 120.531 46.7389V4.49805H130.456V16.459H136.902V26.3834H130.456V46.7422C130.456 47.2522 130.583 47.7163 130.838 48.1413C131.093 48.5663 131.433 48.9062 131.855 49.1579C132.28 49.4129 132.744 49.5404 133.254 49.5404H133.257Z" fill="black"/>
<path d="M161.331 8.7407C156.355 8.91069 153.868 11.2578 153.868 15.7819V17.3935H161.331V27.3179H153.868V59.3827H144.028V27.3179H141.23V17.3935H144.028V15.527C144.028 10.4961 145.47 6.66167 148.353 4.03347C151.236 1.40526 155.45 0.0878906 160.991 0.0878906H161.331V8.7407Z" fill="black"/>
<path d="M170.068 20.6133C174.253 16.2036 179.283 13.9971 185.168 13.9971C191.052 13.9971 196.079 16.2036 200.267 20.6133C204.451 25.0231 206.543 30.3678 206.543 36.6441C206.543 42.9204 204.451 48.2651 200.267 52.6748C196.082 57.0846 191.048 59.2911 185.168 59.2911C179.287 59.2911 174.253 57.0846 170.068 52.6748C165.884 48.2651 163.792 42.9204 163.792 36.6441C163.792 30.3678 165.884 25.0231 170.068 20.6133ZM177.067 45.6794C179.3 48.1964 182 49.455 185.168 49.455C188.335 49.455 191.035 48.1964 193.268 45.6794C195.501 43.1623 196.619 40.1516 196.619 36.6441C196.619 33.1366 195.501 30.1259 193.268 27.6121C191.035 25.095 188.335 23.8365 185.168 23.8365C182 23.8365 179.3 25.095 177.067 27.6121C174.834 30.1292 173.717 33.1398 173.717 36.6441C173.717 40.1484 174.831 43.1623 177.067 45.6794Z" fill="black"/>
<path d="M221.469 59.3795H211.714V0.00292969H221.469V59.3795Z" fill="black"/>
<path d="M233.685 11.4543C232.609 11.4543 231.635 11.1993 230.759 10.6893C229.883 10.1794 229.19 9.48965 228.68 8.61032C228.17 7.73425 227.915 6.78626 227.915 5.76963C227.915 4.18748 228.481 2.83088 229.612 1.69657C230.743 0.565522 232.086 0 233.642 0C235.198 0 236.539 0.565522 237.673 1.69657C238.804 2.82761 239.369 4.17113 239.369 5.72714C239.369 7.28314 238.804 8.62666 237.673 9.7577C236.542 10.8887 235.211 11.4543 233.685 11.4543ZM238.52 59.3798H228.68V13.9158H238.52V59.3798Z" fill="black"/>
<path d="M250.055 20.6133C254.24 16.2036 259.271 13.9971 265.155 13.9971C271.039 13.9971 276.066 16.2036 280.254 20.6133C284.438 25.0231 286.53 30.3678 286.53 36.6441C286.53 42.9204 284.438 48.2651 280.254 52.6748C276.069 57.0846 271.035 59.2911 265.155 59.2911C259.274 59.2911 254.24 57.0846 250.055 52.6748C245.871 48.2651 243.779 42.9204 243.779 36.6441C243.779 30.3678 245.871 25.0231 250.055 20.6133ZM257.054 45.6794C259.287 48.1964 261.987 49.455 265.155 49.455C268.322 49.455 271.022 48.1964 273.255 45.6794C275.488 43.1623 276.606 40.1516 276.606 36.6441C276.606 33.1366 275.488 30.1259 273.255 27.6121C271.022 25.095 268.322 23.8365 265.155 23.8365C261.987 23.8365 259.287 25.095 257.054 27.6121C254.822 30.1292 253.704 33.1398 253.704 36.6441C253.704 40.1484 254.818 43.1623 257.054 45.6794Z" fill="black"/>
</svg>
