<svg width="11" height="18" viewBox="0 0 11 18" fill="none" xmlns="http://www.w3.org/2000/svg">
<path d="M5.63623 17.6367C3.01078 17.6367 0.88623 15.5122 0.88623 12.8867L0.88623 3.81854C0.88623 1.9099 2.43214 0.363991 4.34077 0.363991C6.24941 0.363991 7.79532 1.9099 7.79532 3.81854L7.79532 11.1594C7.79532 12.3513 6.82805 13.3185 5.63623 13.3185C4.44441 13.3185 3.47714 12.3513 3.47714 11.1594L3.47714 4.68217L5.20441 4.68217L5.20441 11.2372C5.20441 11.7122 6.06805 11.7122 6.06805 11.2372L6.06805 3.81854C6.06805 2.86854 5.29077 2.09126 4.34077 2.09126C3.39078 2.09126 2.6135 2.86854 2.6135 3.81854L2.6135 12.8867C2.6135 14.5535 3.96941 15.9094 5.63623 15.9094C7.30305 15.9094 8.65896 14.5535 8.65896 12.8867L8.65896 4.68217L10.3862 4.68217L10.3862 12.8867C10.3862 15.5122 8.26168 17.6367 5.63623 17.6367Z" fill="black"/>
</svg>
