<svg width="14" height="4" viewBox="0 0 14 4" fill="none" xmlns="http://www.w3.org/2000/svg">
<path d="M12.0001 3.66699C12.9167 3.66699 13.6667 2.91699 13.6667 2.00033C13.6667 1.08366 12.9167 0.333658 12.0001 0.333658C11.0834 0.333658 10.3334 1.08366 10.3334 2.00033C10.3334 2.91699 11.0834 3.66699 12.0001 3.66699ZM2.00008 3.66699C2.91675 3.66699 3.66675 2.91699 3.66675 2.00033C3.66675 1.08366 2.91675 0.333659 2.00008 0.333659C1.08341 0.333659 0.333415 1.08366 0.333415 2.00033C0.333415 2.91699 1.08342 3.66699 2.00008 3.66699ZM7.00008 3.66699C7.91675 3.66699 8.66675 2.91699 8.66675 2.00033C8.66675 1.08366 7.91675 0.333659 7.00008 0.333659C6.08341 0.333659 5.33341 1.08366 5.33341 2.00033C5.33341 2.91699 6.08342 3.66699 7.00008 3.66699Z" fill="#121212"/>
</svg>
