<svg width="8" height="13" viewBox="0 0 8 13" fill="none" xmlns="http://www.w3.org/2000/svg">
<path d="M4.26002 5.76667C2.74669 5.37333 2.26002 4.96667 2.26002 4.33333C2.26002 3.60667 2.93336 3.1 4.06002 3.1C5.24669 3.1 5.68669 3.66667 5.72669 4.5H7.20002C7.15336 3.35333 6.45336 2.3 5.06002 1.96V0.5H3.06002V1.94C1.76669 2.22 0.726689 3.06 0.726689 4.34667C0.726689 5.88667 2.00002 6.65333 3.86002 7.1C5.52669 7.5 5.86002 8.08667 5.86002 8.70667C5.86002 9.16667 5.53336 9.9 4.06002 9.9C2.68669 9.9 2.14669 9.28667 2.07336 8.5H0.606689C0.686689 9.96 1.78002 10.78 3.06002 11.0533V12.5H5.06002V11.0667C6.36002 10.82 7.39336 10.0667 7.39336 8.7C7.39336 6.80667 5.77336 6.16 4.26002 5.76667Z" fill="black"/>
</svg>
