<svg width="8" height="12" viewBox="0 0 8 12" fill="none" xmlns="http://www.w3.org/2000/svg">
<path d="M4.26 5.26667C2.74667 4.87333 2.26 4.46667 2.26 3.83333C2.26 3.10667 2.93333 2.6 4.06 2.6C5.24667 2.6 5.68667 3.16667 5.72667 4H7.2C7.15333 2.85333 6.45333 1.8 5.06 1.46V0H3.06V1.44C1.76667 1.72 0.726666 2.56 0.726666 3.84667C0.726666 5.38667 2 6.15333 3.86 6.6C5.52667 7 5.86 7.58667 5.86 8.20667C5.86 8.66667 5.53333 9.4 4.06 9.4C2.68667 9.4 2.14667 8.78667 2.07333 8H0.606667C0.686667 9.46 1.78 10.28 3.06 10.5533V12H5.06V10.5667C6.36 10.32 7.39333 9.56667 7.39333 8.2C7.39333 6.30667 5.77333 5.66 4.26 5.26667Z" fill="#121212"/>
</svg>
