<svg width="14" height="15" viewBox="0 0 14 15" fill="none" xmlns="http://www.w3.org/2000/svg">
<path d="M7.66744 1.50033V2.16699H6.3341V1.50033H7.66744ZM7.00077 6.24032L10.5874 7.42033L12.1808 7.94032L11.4341 10.587C11.0741 10.387 10.8074 10.1137 10.6741 9.96032L9.66744 8.80699L8.66077 9.95366C8.4341 10.2203 7.80744 10.8337 7.00077 10.8337C6.1941 10.8337 5.56744 10.2203 5.34077 9.95366L4.3341 8.80699L3.32744 9.95366C3.1941 10.107 2.92744 10.3737 2.56744 10.5737L1.8141 7.93366L3.4141 7.40699L7.00077 6.24032ZM9.00077 0.166992H5.00077V2.16699H3.00077C2.26744 2.16699 1.66744 2.76699 1.66744 3.50033V6.58033L0.807437 6.86032C0.634103 6.91366 0.487437 7.03366 0.407437 7.19366C0.327437 7.35366 0.307437 7.54032 0.367437 7.71366L1.6341 12.167H1.66744C2.7341 12.167 3.68077 11.5803 4.3341 10.8337C4.98744 11.5803 5.9341 12.167 7.00077 12.167C8.06744 12.167 9.0141 11.5803 9.66744 10.8337C10.3208 11.5803 11.2674 12.167 12.3341 12.167H12.3674L13.6274 7.71366C13.6808 7.54032 13.6674 7.35366 13.5874 7.19366C13.5074 7.03366 13.3608 6.91366 13.1874 6.86032L12.3341 6.58033V3.50033C12.3341 2.76699 11.7341 2.16699 11.0008 2.16699H9.00077V0.166992ZM3.00077 6.14699V3.50033H11.0008V6.14699L7.00077 4.83366L3.00077 6.14699ZM9.66744 12.6203C8.8541 13.187 7.92744 13.4737 7.00077 13.4737C6.0741 13.4737 5.14744 13.187 4.3341 12.6203C3.52077 13.187 2.5941 13.5003 1.66744 13.5003H0.334103V14.8337H1.66744C2.58744 14.8337 3.4941 14.6003 4.3341 14.1737C5.1741 14.6003 6.08744 14.8203 7.00077 14.8203C7.9141 14.8203 8.82744 14.607 9.66744 14.1737C10.5074 14.607 11.4141 14.8337 12.3341 14.8337H13.6674V13.5003H12.3341C11.4074 13.5003 10.4808 13.187 9.66744 12.6203Z" fill="#121212"/>
</svg>
