<svg width="21" height="20" viewBox="0 0 21 20" fill="none" xmlns="http://www.w3.org/2000/svg">
<g clip-path="url(#clip0_398_129)">
<path d="M11.0619 5.74667C10.2719 5.74667 9.04944 4.84833 7.76194 4.88C6.06194 4.9025 4.50361 5.86583 3.62777 7.39167C1.86361 10.4542 3.17277 14.9775 4.89361 17.4667C5.73777 18.6783 6.73361 20.0417 8.05361 19.9992C9.32027 19.945 9.79527 19.1767 11.3328 19.1767C12.8586 19.1767 13.2911 19.9992 14.6328 19.9667C15.9969 19.945 16.8628 18.7333 17.6961 17.51C18.6594 16.1033 19.0594 14.7392 19.0811 14.6642C19.0486 14.6533 16.4294 13.6467 16.3978 10.6167C16.3761 8.08333 18.4644 6.87167 18.5619 6.8175C17.3711 5.07583 15.5428 4.88083 14.9036 4.8375C13.2369 4.7075 11.8411 5.74583 11.0619 5.74583V5.74667ZM13.8769 3.19167C14.5794 2.34833 15.0436 1.16917 14.9144 0C13.9086 0.0433333 12.6961 0.670833 11.9711 1.515C11.3211 2.26167 10.7594 3.46333 10.9103 4.61C12.0253 4.69667 13.1728 4.03667 13.8761 3.1925" fill="#D9D9D9"/>
</g>
<defs>
<clipPath id="clip0_398_129">
<rect width="20" height="20" fill="white" transform="translate(0.935303)"/>
</clipPath>
</defs>
</svg>
