<svg width="16" height="16" viewBox="0 0 16 16" fill="none" xmlns="http://www.w3.org/2000/svg">
<path d="M13.3333 3.33333H11.22L10 2H6.00001L4.78001 3.33333H2.66668C1.93334 3.33333 1.33334 3.93333 1.33334 4.66667V12.6667C1.33334 13.4 1.93334 14 2.66668 14H13.3333C14.0667 14 14.6667 13.4 14.6667 12.6667V4.66667C14.6667 3.93333 14.0667 3.33333 13.3333 3.33333ZM13.3333 12.6667H2.66668V4.66667H5.36668L6.58668 3.33333H9.41334L10.6333 4.66667H13.3333V12.6667ZM8.00001 5.33333C6.16001 5.33333 4.66668 6.82667 4.66668 8.66667C4.66668 10.5067 6.16001 12 8.00001 12C9.84001 12 11.3333 10.5067 11.3333 8.66667C11.3333 6.82667 9.84001 5.33333 8.00001 5.33333ZM8.00001 10.6667C6.90001 10.6667 6.00001 9.76667 6.00001 8.66667C6.00001 7.56667 6.90001 6.66667 8.00001 6.66667C9.10001 6.66667 10 7.56667 10 8.66667C10 9.76667 9.10001 10.6667 8.00001 10.6667Z" fill="#121212"/>
</svg>
