<svg width="20" height="20" viewBox="0 0 20 20" fill="none" xmlns="http://www.w3.org/2000/svg">
<path d="M13.8044 5.8973L8.13963 11.562L6.19583 9.61827C5.72811 9.15053 4.96978 9.15054 4.50206 9.61826L4.50205 9.61827C4.03434 10.086 4.03434 10.8442 4.50205 11.312L4.50206 11.312L7.29275 14.1027C7.76045 14.5704 8.51886 14.5705 8.98654 14.1026L15.4981 7.59107C15.9658 7.12336 15.9658 6.36502 15.4981 5.8973C15.0304 5.42959 14.2721 5.42959 13.8044 5.8973L14.158 6.25086L13.8044 5.8973ZM0.5 10C0.5 4.7533 4.7533 0.5 10 0.5C15.2467 0.5 19.5 4.75329 19.5 10C19.5 15.2467 15.2467 19.5 10 19.5C4.75329 19.5 0.5 15.2467 0.5 10Z" fill="#FAF55D" stroke="#FAF55D"/>
</svg>
