<svg width="38" height="50" viewBox="0 0 38 50" fill="none" xmlns="http://www.w3.org/2000/svg">
<g clip-path="url(#clip0_115_623)">
<path d="M8.59322 29.2546V49.9963H0V0H24.2199C28.0089 0 31.2498 1.42995 33.9499 4.29355C36.65 7.15344 38 10.5987 38 14.6292C38 18.6597 36.65 22.1049 33.9499 24.9648C31.2498 27.8247 28.0089 29.2584 24.2199 29.2584H8.59322V29.2546Z" fill="black"/>
<path d="M12.1358 33.3627C13.9236 31.4659 16.0719 30.5176 18.5844 30.5176C21.0969 30.5176 23.2452 31.4659 25.033 33.3627C26.8208 35.2594 27.7147 37.5562 27.7147 40.2568C27.7147 42.9574 26.8208 45.2542 25.033 47.1509C23.2452 49.0476 21.0969 49.996 18.5844 49.996C16.0719 49.996 13.9236 49.0476 12.1358 47.1509C10.348 45.2542 9.4541 42.9574 9.4541 40.2568C9.4541 37.5562 10.348 35.2594 12.1358 33.3627Z" fill="black"/>
</g>
<defs>
<clipPath id="clip0_115_623">
<rect width="38" height="50" fill="white"/>
</clipPath>
</defs>
</svg>
