<svg width="16" height="11" viewBox="0 0 16 11" fill="none" xmlns="http://www.w3.org/2000/svg">
<path d="M11.3333 0.833008H2.00001C1.26667 0.833008 0.666672 1.42634 0.666672 2.16634V8.16634H2.00001C2.00001 9.27301 2.89334 10.1663 4 10.1663C5.10667 10.1663 6 9.27301 6 8.16634H10C10 9.27301 10.8933 10.1663 12 10.1663C13.1067 10.1663 14 9.27301 14 8.16634H15.3333V4.83301L11.3333 0.833008ZM10 2.16634H10.6667L12.6667 4.16634H10V2.16634ZM6 2.16634H8.66667V4.16634H6V2.16634ZM2.00001 2.16634H4.66667V4.16634H2.00001V2.16634ZM4 8.99967C3.54 8.99967 3.16667 8.62634 3.16667 8.16634C3.16667 7.70634 3.54 7.33301 4 7.33301C4.46 7.33301 4.83334 7.70634 4.83334 8.16634C4.83334 8.62634 4.46 8.99967 4 8.99967ZM12 8.99967C11.54 8.99967 11.1667 8.62634 11.1667 8.16634C11.1667 7.70634 11.54 7.33301 12 7.33301C12.46 7.33301 12.8333 7.70634 12.8333 8.16634C12.8333 8.62634 12.46 8.99967 12 8.99967ZM14 6.83301H13.48C13.1133 6.42634 12.5867 6.16634 12 6.16634C11.4133 6.16634 10.8867 6.42634 10.52 6.83301H5.48C5.11334 6.42634 4.59334 6.16634 4 6.16634C3.40667 6.16634 2.88667 6.42634 2.52 6.83301H2.00001V5.49967H14V6.83301Z" fill="#121212"/>
</svg>
