<svg width="15" height="12" viewBox="0 0 15 12" fill="none" xmlns="http://www.w3.org/2000/svg">
<path d="M8.5 0C5.18667 0 2.5 2.68667 2.5 6H0.5L3.09333 8.59333L3.14 8.68667L5.83333 6H3.83333C3.83333 3.42 5.92 1.33333 8.5 1.33333C11.08 1.33333 13.1667 3.42 13.1667 6C13.1667 8.58 11.08 10.6667 8.5 10.6667C7.21333 10.6667 6.04667 10.14 5.20667 9.29333L4.26 10.24C5.34667 11.3267 6.84 12 8.5 12C11.8133 12 14.5 9.31333 14.5 6C14.5 2.68667 11.8133 0 8.5 0ZM7.83333 3.33333V6.66667L10.6667 8.34667L11.18 7.49333L8.83333 6.1V3.33333H7.83333Z" fill="#121212"/>
</svg>
