<svg width="12" height="14" viewBox="0 0 12 14" fill="none" xmlns="http://www.w3.org/2000/svg">
<path d="M10 4.66667H9.33333V3.33333C9.33333 1.49333 7.84 0 6 0C4.16 0 2.66667 1.49333 2.66667 3.33333V4.66667H2C1.26667 4.66667 0.666667 5.26667 0.666667 6V12.6667C0.666667 13.4 1.26667 14 2 14H10C10.7333 14 11.3333 13.4 11.3333 12.6667V6C11.3333 5.26667 10.7333 4.66667 10 4.66667ZM4 3.33333C4 2.22667 4.89333 1.33333 6 1.33333C7.10667 1.33333 8 2.22667 8 3.33333V4.66667H4V3.33333ZM10 12.6667H2V6H10V12.6667ZM6 10.6667C6.73333 10.6667 7.33333 10.0667 7.33333 9.33333C7.33333 8.6 6.73333 8 6 8C5.26667 8 4.66667 8.6 4.66667 9.33333C4.66667 10.0667 5.26667 10.6667 6 10.6667Z" fill="#121212"/>
</svg>
