<svg width="21" height="20" viewBox="0 0 21 20" fill="none" xmlns="http://www.w3.org/2000/svg">
<g clip-path="url(#clip0_398_16)">
<path d="M11.3353 9.1V11.8333H17.8687C17.6687 13.3667 17.1578 14.4892 16.3795 15.2775C15.4237 16.2333 13.9353 17.2775 11.3353 17.2775C7.31283 17.2775 4.16866 14.0333 4.16866 10.0108C4.16866 5.98833 7.31283 2.74417 11.3353 2.74417C13.502 2.74417 15.0912 3.6 16.2578 4.7L18.1803 2.7775C16.5578 1.2 14.3795 0 11.3353 0C5.82449 0 1.19116 4.48917 1.19116 10C1.19116 15.5108 5.82449 20 11.3353 20C14.3128 20 16.5578 19.0225 18.3128 17.2C20.1128 15.4 20.6795 12.8558 20.6795 10.8108C20.6795 10.1775 20.6353 9.58833 20.5353 9.1H11.3353Z" fill="#D9D9D9"/>
</g>
<defs>
<clipPath id="clip0_398_16">
<rect width="20" height="20" fill="white" transform="translate(0.935303)"/>
</clipPath>
</defs>
</svg>
