<svg width="12" height="11" viewBox="0 0 12 11" fill="none" xmlns="http://www.w3.org/2000/svg">
<path d="M10.6133 0.840326C10.48 0.446992 10.1067 0.166992 9.66667 0.166992H2.33333C1.89333 0.166992 1.52667 0.446992 1.38667 0.840326L0 4.83366V10.167C0 10.5337 0.3 10.8337 0.666667 10.8337H1.33333C1.7 10.8337 2 10.5337 2 10.167V9.50033H10V10.167C10 10.5337 10.3 10.8337 10.6667 10.8337H11.3333C11.7 10.8337 12 10.5337 12 10.167V4.83366L10.6133 0.840326ZM2.56667 1.50033H9.42667L10.1467 3.57366H1.84667L2.56667 1.50033ZM10.6667 8.16699H1.33333V4.83366H10.6667V8.16699Z" fill="#121212"/>
<path d="M3 7.50033C3.55228 7.50033 4 7.05261 4 6.50033C4 5.94804 3.55228 5.50033 3 5.50033C2.44772 5.50033 2 5.94804 2 6.50033C2 7.05261 2.44772 7.50033 3 7.50033Z" fill="#121212"/>
<path d="M9 7.50033C9.55229 7.50033 10 7.05261 10 6.50033C10 5.94804 9.55229 5.50033 9 5.50033C8.44772 5.50033 8 5.94804 8 6.50033C8 7.05261 8.44772 7.50033 9 7.50033Z" fill="#121212"/>
</svg>
