<svg width="25" height="24" viewBox="0 0 25 24" fill="none" xmlns="http://www.w3.org/2000/svg">
<path d="M16.505 14.2549H15.715L15.435 13.9849C16.415 12.8449 17.005 11.3649 17.005 9.75488C17.005 6.16488 14.095 3.25488 10.505 3.25488C6.915 3.25488 4.005 6.16488 4.005 9.75488C4.005 13.3449 6.915 16.2549 10.505 16.2549C12.115 16.2549 13.595 15.6649 14.735 14.6849L15.005 14.9649V15.7549L20.005 20.7449L21.495 19.2549L16.505 14.2549ZM10.505 14.2549C8.01501 14.2549 6.005 12.2449 6.005 9.75488C6.005 7.26488 8.01501 5.25488 10.505 5.25488C12.995 5.25488 15.005 7.26488 15.005 9.75488C15.005 12.2449 12.995 14.2549 10.505 14.2549Z" fill="#E9E9E9"/>
</svg>
